<svg width="98" height="98" viewBox="0 0 98 98" fill="none" xmlns="http://www.w3.org/2000/svg">
<g opacity="0.5">
<path d="M81.4324 56.6137C81.4324 74.9327 66.9119 89.7832 48.9999 89.7832C31.088 89.7832 16.5675 74.9327 16.5675 56.6137C16.5675 49.9319 18.5597 38.7438 24.6756 33.0265L33.0281 44.1631C34.2126 45.7425 36.8613 44.8738 36.9555 42.9018C37.4316 32.9256 39.5932 14.1397 48.9999 8.70215C48.9999 8.70215 81.4324 38.2947 81.4324 56.6137Z" stroke="white" stroke-width="6.08108" stroke-linejoin="round"/>
<path d="M61.1621 74.8571C61.1621 83.1006 55.7169 89.7834 48.9999 89.7834C42.283 89.7834 36.8378 83.1006 36.8378 74.8571C36.8378 66.6135 48.9999 53.2969 48.9999 53.2969C48.9999 53.2969 61.1621 66.6135 61.1621 74.8571Z" stroke="white" stroke-width="6.08108" stroke-linejoin="round"/>
</g>
</svg>
