<svg width="232" height="121" viewBox="0 0 232 121" fill="none" xmlns="http://www.w3.org/2000/svg">
<path d="M138.925 77.5604L133.563 77.5383L133.507 63.9419L100.952 63.808L101.008 77.4045L95.6458 77.3824L95.5276 71.9243L90.1656 71.9023L90.1326 63.8593L84.6745 63.7411L84.6524 58.3791L90.1097 58.3058L90.0767 50.2629L95.4387 50.2849L95.512 44.8276L100.874 44.8496L100.93 58.4461L133.485 58.5799L133.429 44.9835L138.791 45.0055L138.909 50.4636L144.271 50.4857L144.304 58.5286L149.762 58.6468L149.784 64.0088L144.327 64.0821L144.36 72.1251L138.998 72.103L138.925 77.5604Z" fill="#24551C"/>
</svg>
