<svg width="99" height="98" viewBox="0 0 99 98" fill="none" xmlns="http://www.w3.org/2000/svg">
<g opacity="0.5">
<path d="M61.1969 33.0264H37.8844C32.5673 33.0264 28.2569 37.3368 28.2569 42.6539V44.0502C28.2569 45.5498 28.8165 46.9954 29.8262 48.1041L30.9208 49.3059C32.746 51.3102 32.4302 54.4547 30.2428 56.0559C27.7541 57.8777 27.7541 61.5932 30.2428 63.415C32.4302 65.0162 32.746 68.1607 30.9208 70.1649L29.8262 71.3668C28.8165 72.4755 28.2569 73.9211 28.2569 75.4207V77.7487C28.2569 84.3951 33.6449 89.7831 40.2913 89.7831H58.79C65.4364 89.7831 70.8244 84.3951 70.8244 77.7487V75.4207C70.8244 73.9211 70.2648 72.4755 69.2551 71.3668L68.1606 70.1649C66.3353 68.1607 66.6511 65.0162 68.8385 63.415C71.3272 61.5932 71.3272 57.8777 68.8385 56.0559C66.6511 54.4547 66.3353 51.3102 68.1606 49.3059L69.2551 48.1041C70.2648 46.9954 70.8244 45.5498 70.8244 44.0502V42.6539C70.8244 37.3368 66.5141 33.0264 61.1969 33.0264Z" stroke="#46F280" stroke-opacity="0.6" stroke-width="6.08108" stroke-linecap="round" stroke-linejoin="round"/>
<path d="M33.3244 33.0264C33.3244 26.3094 38.7696 20.8643 45.4865 20.8643H53.5946C60.3116 20.8643 65.7568 26.3094 65.7568 33.0264V33.0264H33.3244V33.0264Z" stroke="#46F280" stroke-opacity="0.6" stroke-width="6.08108"/>
<path d="M41.4326 12.7562C41.4326 10.5172 43.2476 8.70215 45.4866 8.70215H53.5947C55.8337 8.70215 57.6488 10.5172 57.6488 12.7562V16.8103C57.6488 19.0493 55.8337 20.8643 53.5947 20.8643H45.4866C43.2476 20.8643 41.4326 19.0492 41.4326 16.8103V12.7562Z" stroke="#46F280" stroke-opacity="0.6" stroke-width="6.08108"/>
</g>
</svg>
